<svg xmlns="http://www.w3.org/2000/svg" viewBox="0 0 989.5 989.5">
    <defs>
        <linearGradient id="a" x1="267.76" x2="685.63" y1="446.4" y2="446.4" gradientUnits="userSpaceOnUse">
            <stop offset="0" stop-color="#7f7c76"/>
            <stop offset="1" stop-color="#f5f0e8"/>
        </linearGradient>
    </defs>
    <g style="opacity:.8">
        <path d="M257.462 0H725.16c142.096 0 257.46 115.364 257.46 257.46v474.578c0 142.097-115.365 257.462-257.462 257.462H257.46C115.364 989.5 0 874.136 0 732.04V257.462C0 115.365 115.365 0 257.462 0" style="fill:#2a2621"/>
    </g>
    <path d="M479.64 257.55c-116.83 0-211.88 95.05-211.88 211.88 0 67.07 31.33 126.97 80.13 165.82l190.99-238.53 93.04 85.01 53.71-62.01c-22.42-92.93-106.27-162.17-205.99-162.17" style="fill:url(#a)"/>
    <path d="M959.017 124.31c-19.303-34.637-47.138-64.318-80.495-85.834a241.5 241.5 0 0 0-56.19-26.688C798.224 3.964 773.068 0 747.551 0H241.95c-2.601 0-5.133.04-7.529.119-32.708.999-64.281 8.431-93.845 22.088-28.599 13.211-54.033 31.631-75.596 54.748a243 243 0 0 0-35.232 48.683C10.288 161.065 0 201.287 0 241.95v505.6c0 27.859 4.701 55.172 13.972 81.181a241 241 0 0 0 27.116 53.736C86.163 949.483 161.255 989.5 241.95 989.5h505.6c26.287 0 52.142-4.196 76.846-12.471 23.224-7.771 45.099-19.028 65.006-33.455a242.7 242.7 0 0 0 51.597-50.691c19.94-26.496 33.99-56.235 41.754-88.382 4.478-18.558 6.748-37.716 6.748-56.951v-505.6c0-41.176-10.541-81.855-30.483-117.64ZM809.97 49.83a201.4 201.4 0 0 1 46.87 22.26L704.87 247.56c-.55-.57-1.11-1.13-1.67-1.69a321 321 0 0 0-36.08-31.1zM595.82 40h52.69L602.7 178.02a311 311 0 0 0-47.48-15.7zm-122.45 0 8.27 113.28-49.88 3.57L423.23 40zm-231.42 0h49.62l68.68 136.5-44.64 22.51L235.66 40.1c2.09-.07 4.19-.1 6.29-.1M94.23 104.24l162.99 140.49c-.39.38-.77.76-1.15 1.14a319 319 0 0 0-31.54 36.69L64.81 144.89a202.8 202.8 0 0 1 29.42-40.65M40 298.35l147.93 48.71a311 311 0 0 0-15.59 47.52L40 351zm0 179.14 123.48-9.31c-.01.42-.01.83-.01 1.25 0 16.43 1.24 32.68 3.7 48.62L40 527.63zM811.69 939.1a495 495 0 0 1-43.45 1.92c-38.12 0-75.61-4.48-111.44-13.52-54.97-13.56-107.25-36.22-157.81-58.14-18.01-7.81-36.64-15.89-54.89-23.32l-.25-.1c-93.43-39.24-146.91-43.23-183.08-42.31l-.11.01c-61.13 1.27-122.34 18.82-177.01 50.76-3.19 1.86-6.31 3.77-9.38 5.73a200.7 200.7 0 0 1-22.62-44.83c2.24-1.39 4.5-2.75 6.8-4.09 61.97-36.2 131.53-56.11 201.14-57.56 78.28-1.96 149.85 23.61 203.5 46.14 18.73 7.63 37.57 15.79 55.79 23.69 48.68 21.11 99.02 42.93 149.93 55.49l.14.03c43.2 10.91 89.29 14.38 136.97 10.33 34.9-2.97 69.46-9.85 103.11-20.49-24.33 32.35-58.16 57.15-97.34 70.26M949.5 436.55 844.95 312.16l-105.76 122.1-48.71 56.23-54.39 62.79-91.54-83.65-142.57 178.06c32.34 7.4 62.61 18.06 89.91 31.89.81.41 1.62.82 2.42 1.22 25.86 13.07 51.02 24.6 75.57 34.62 82.74 33.79 158.44 50.43 229.69 50.66h1.5c51.09 0 100.35-8.37 148.43-25.34v6.81c0 16.38-1.95 32.31-5.63 47.56-46.26 13.93-94.21 20.97-142.85 20.97h-1.61c-97.07-.32-200.55-28.07-315.91-84.8-4.72-2.32-9.47-4.69-14.23-7.11-38.5-19.5-83.85-31.84-134.79-36.67-.69-.07-1.39-.14-2.09-.2-49.81-4.51-103.51-1.38-155.28 9.06C127.1 706.45 80.63 722.73 40 743.94v-55.57c38.97-17.94 81.85-31.88 127.23-41.02 36.9-7.44 73.78-11.43 109.71-12.06-38.33-46.67-59.18-104.67-59.18-165.86 0-69.95 27.24-135.71 76.7-185.17 49.46-49.47 115.23-76.71 185.18-76.71s135.71 27.24 185.18 76.71c26.32 26.32 46.36 57.27 59.33 91l121.38-140.13 103.97 123.7z" style="fill:#ece6da"/>
</svg>